ModelForces
version=1
nRows=4
nColumns=202
inDegrees=no

This file contains the forces exerted on a model during a simulation.

A force is a generalized force, meaning that it can be either a force (N) or a torque (Nm).

Units are S.I. units (second, meters, Newtons, ...)
Angles are in degrees.

endheader
time	glut_med1_r	glut_med2_r	glut_med3_r	glut_min1_r	glut_min2_r	glut_min3_r	semimem_r	semiten_r	bifemlh_r	bifemsh_r	sar_r	add_long_r	add_brev_r	add_mag1_r	add_mag2_r	add_mag3_r	tfl_r	pect_r	grac_r	glut_max1_r	glut_max2_r	glut_max3_r	iliacus_r	psoas_r	quad_fem_r	gem_r	peri_r	rect_fem_r	vas_med_r	vas_int_r	vas_lat_r	med_gas_r	lat_gas_r	soleus_r	tib_post_r	flex_dig_r	flex_hal_r	tib_ant_r	per_brev_r	per_long_r	per_tert_r	ext_dig_r	ext_hal_r	glut_med1_l	glut_med2_l	glut_med3_l	glut_min1_l	glut_min2_l	glut_min3_l	semimem_l	semiten_l	bifemlh_l	bifemsh_l	sar_l	add_long_l	add_brev_l	add_mag1_l	add_mag2_l	add_mag3_l	tfl_l	pect_l	grac_l	glut_max1_l	glut_max2_l	glut_max3_l	iliacus_l	psoas_l	quad_fem_l	gem_l	peri_l	rect_fem_l	vas_med_l	vas_int_l	vas_lat_l	med_gas_l	lat_gas_l	soleus_l	tib_post_l	flex_dig_l	flex_hal_l	tib_ant_l	per_brev_l	per_long_l	per_tert_l	ext_dig_l	ext_hal_l	ercspn_r	ercspn_l	intobl_r	intobl_l	extobl_r	extobl_l	femur_lat_meniscii_l.femur_lat_l.force.X	femur_lat_meniscii_l.femur_lat_l.force.Y	femur_lat_meniscii_l.femur_lat_l.force.Z	femur_lat_meniscii_l.femur_lat_l.torque.X	femur_lat_meniscii_l.femur_lat_l.torque.Y	femur_lat_meniscii_l.femur_lat_l.torque.Z	femur_lat_meniscii_l.meniscus_lat_l.force.X	femur_lat_meniscii_l.meniscus_lat_l.force.Y	femur_lat_meniscii_l.meniscus_lat_l.force.Z	femur_lat_meniscii_l.meniscus_lat_l.torque.X	femur_lat_meniscii_l.meniscus_lat_l.torque.Y	femur_lat_meniscii_l.meniscus_lat_l.torque.Z	femur_med_meniscii_l.femur_med_l.force.X	femur_med_meniscii_l.femur_med_l.force.Y	femur_med_meniscii_l.femur_med_l.force.Z	femur_med_meniscii_l.femur_med_l.torque.X	femur_med_meniscii_l.femur_med_l.torque.Y	femur_med_meniscii_l.femur_med_l.torque.Z	femur_med_meniscii_l.meniscus_med_l.force.X	femur_med_meniscii_l.meniscus_med_l.force.Y	femur_med_meniscii_l.meniscus_med_l.force.Z	femur_med_meniscii_l.meniscus_med_l.torque.X	femur_med_meniscii_l.meniscus_med_l.torque.Y	femur_med_meniscii_l.meniscus_med_l.torque.Z	femur_lat_meniscii_r.femur_lat_r.force.X	femur_lat_meniscii_r.femur_lat_r.force.Y	femur_lat_meniscii_r.femur_lat_r.force.Z	femur_lat_meniscii_r.femur_lat_r.torque.X	femur_lat_meniscii_r.femur_lat_r.torque.Y	femur_lat_meniscii_r.femur_lat_r.torque.Z	femur_lat_meniscii_r.meniscus_lat_r.force.X	femur_lat_meniscii_r.meniscus_lat_r.force.Y	femur_lat_meniscii_r.meniscus_lat_r.force.Z	femur_lat_meniscii_r.meniscus_lat_r.torque.X	femur_lat_meniscii_r.meniscus_lat_r.torque.Y	femur_lat_meniscii_r.meniscus_lat_r.torque.Z	femur_med_meniscii_r.femur_med_r.force.X	femur_med_meniscii_r.femur_med_r.force.Y	femur_med_meniscii_r.femur_med_r.force.Z	femur_med_meniscii_r.femur_med_r.torque.X	femur_med_meniscii_r.femur_med_r.torque.Y	femur_med_meniscii_r.femur_med_r.torque.Z	femur_med_meniscii_r.meniscus_med_r.force.X	femur_med_meniscii_r.meniscus_med_r.force.Y	femur_med_meniscii_r.meniscus_med_r.force.Z	femur_med_meniscii_r.meniscus_med_r.torque.X	femur_med_meniscii_r.meniscus_med_r.torque.Y	femur_med_meniscii_r.meniscus_med_r.torque.Z	femur_med_tibia_l.tibia_upper_l.force.X	femur_med_tibia_l.tibia_upper_l.force.Y	femur_med_tibia_l.tibia_upper_l.force.Z	femur_med_tibia_l.tibia_upper_l.torque.X	femur_med_tibia_l.tibia_upper_l.torque.Y	femur_med_tibia_l.tibia_upper_l.torque.Z	femur_med_tibia_l.femur_med_l.force.X	femur_med_tibia_l.femur_med_l.force.Y	femur_med_tibia_l.femur_med_l.force.Z	femur_med_tibia_l.femur_med_l.torque.X	femur_med_tibia_l.femur_med_l.torque.Y	femur_med_tibia_l.femur_med_l.torque.Z	femur_lat_tibia_l.tibia_upper_l.force.X	femur_lat_tibia_l.tibia_upper_l.force.Y	femur_lat_tibia_l.tibia_upper_l.force.Z	femur_lat_tibia_l.tibia_upper_l.torque.X	femur_lat_tibia_l.tibia_upper_l.torque.Y	femur_lat_tibia_l.tibia_upper_l.torque.Z	femur_lat_tibia_l.femur_lat_l.force.X	femur_lat_tibia_l.femur_lat_l.force.Y	femur_lat_tibia_l.femur_lat_l.force.Z	femur_lat_tibia_l.femur_lat_l.torque.X	femur_lat_tibia_l.femur_lat_l.torque.Y	femur_lat_tibia_l.femur_lat_l.torque.Z	femur_med_tibia_r.tibia_upper_r.force.X	femur_med_tibia_r.tibia_upper_r.force.Y	femur_med_tibia_r.tibia_upper_r.force.Z	femur_med_tibia_r.tibia_upper_r.torque.X	femur_med_tibia_r.tibia_upper_r.torque.Y	femur_med_tibia_r.tibia_upper_r.torque.Z	femur_med_tibia_r.femur_med_r.force.X	femur_med_tibia_r.femur_med_r.force.Y	femur_med_tibia_r.femur_med_r.force.Z	femur_med_tibia_r.femur_med_r.torque.X	femur_med_tibia_r.femur_med_r.torque.Y	femur_med_tibia_r.femur_med_r.torque.Z	femur_lat_tibia_r.tibia_upper_r.force.X	femur_lat_tibia_r.tibia_upper_r.force.Y	femur_lat_tibia_r.tibia_upper_r.force.Z	femur_lat_tibia_r.tibia_upper_r.torque.X	femur_lat_tibia_r.tibia_upper_r.torque.Y	femur_lat_tibia_r.tibia_upper_r.torque.Z	femur_lat_tibia_r.femur_lat_r.force.X	femur_lat_tibia_r.femur_lat_r.force.Y	femur_lat_tibia_r.femur_lat_r.force.Z	femur_lat_tibia_r.femur_lat_r.torque.X	femur_lat_tibia_r.femur_lat_r.torque.Y	femur_lat_tibia_r.femur_lat_r.torque.Z	aACL_R	pACL_R	aPCL_R	pPCL_R	aMCL_R	aLCL_R	aPCL_L	pPCL_L	aMCL_L	aLCL_L	ground_prescribedForce_0_fx	ground_prescribedForce_0_fy	ground_prescribedForce_0_fz
      0.00000000	     37.48087652	     28.28714471	     30.25598133	     13.28977762	     14.47626353	     15.91713841	     27.47192734	     19.91104922	     31.42904919	     34.15035619	      7.54404356	     27.93927808	     20.68957741	     14.51222487	     12.16230296	     19.66717628	     12.38053610	     11.16605282	      7.61648058	     18.12681708	     27.55933735	     20.56469162	     63.94906620	     55.74758807	     18.09791099	      9.16719286	     20.03897647	     56.35709815	     41.92307073	     43.57226991	     55.99503934	     51.57537787	     26.36790092	    152.72720615	     92.44658902	     14.93332009	     15.26895791	     41.82851940	     21.62523106	     46.40594865	      8.86060096	     25.04818486	      7.96045570	     37.48087652	     28.28714471	     30.25598133	     13.28977762	     14.47626353	     15.91713841	     42.06683902	     20.39635155	     37.67631238	     36.01822118	      7.59254209	     27.93927808	     20.68957741	     14.51222487	     12.16230296	     19.66717628	     12.58139899	     11.16605282	      7.78214370	     18.12681708	     27.55933735	     20.56469162	     63.94906620	     55.74758807	     18.09791099	      9.16719286	     20.03897647	     52.59637061	     32.48786114	     37.22481259	     39.87514307	     67.71424671	     31.64857027	    152.72720615	     92.44658902	     14.93332009	     15.26895791	     41.82851940	     21.62523106	     46.40594865	      8.86060096	     25.04818486	      7.96045570	    124.99446086	    124.99446086	     44.97041513	     44.97041513	     60.98287244	     60.98287244	      2.76307435	     50.99597937	     -9.56042239	      5.21997485	     -0.02578839	      1.48581788	     -2.76307435	    -50.99597937	      9.56042239	     -1.74637766	      0.02558040	     -0.48301696	     -3.31599387	     20.97615968	     -3.40468921	      0.94473225	     -0.02138609	     -1.00501789	      3.31599387	    -20.97615968	      3.40468921	      0.28075727	      0.00368718	     -0.29758878	   3013.25548926	   4095.96346974	     43.78009039	   -121.54311000	     77.46086807	   1246.65577334	  -3013.25548926	  -4095.96346974	    -43.78009039	    124.70684762	    -92.33392032	    -72.91838438	    -73.78290210	    661.98446017	    -33.61563334	     26.61787785	      1.96030484	    -20.52832385	     73.78290210	   -661.98446017	     33.61563334	    -10.54514118	     -1.42617070	     -4.23112792	      0.00000000	      0.00000000	      0.00000000	      0.00000000	      0.00000000	      0.00000000	      0.00000000	      0.00000000	      0.00000000	      0.00000000	      0.00000000	      0.00000000	      0.00000000	      0.00000000	      0.00000000	      0.00000000	      0.00000000	      0.00000000	      0.00000000	      0.00000000	      0.00000000	      0.00000000	      0.00000000	      0.00000000	     -7.91646448	    -20.30655922	      6.07050290	     -0.47579376	      0.10064849	     -0.28362643	      7.91646448	     20.30655922	     -6.07050290	      2.89600178	     -0.10742083	      3.41713420	      0.00000000	      0.00000000	      0.00000000	      0.00000000	      0.00000000	      0.00000000	      0.00000000	      0.00000000	      0.00000000	      0.00000000	      0.00000000	      0.00000000	      0.00000000	      0.00000000	      1.73067428	     39.60002205	      0.00000000	      4.03503607	      0.00000000	      0.00000000	      0.00000001	      0.00000000	    103.36618800	    -37.62220000	      0.00000000
      0.00016215	     37.48060738	     28.28669038	     30.25557746	     13.28920493	     14.47595238	     15.91701849	     27.64955351	     20.04575672	     31.63082391	     35.00959677	      7.67789086	     27.93891130	     20.68820828	     14.51199443	     12.16216607	     19.66706462	     12.43919537	     11.16569835	      7.72717038	     18.12657595	     27.55897668	     20.56446591	     63.94844568	     55.74723376	     18.09749761	      9.16713757	     20.03892834	     56.68201968	     42.47116205	     44.15434788	     56.59659855	     51.99358122	     26.58437997	    153.12904786	     92.51643098	     14.94041550	     15.27902144	     41.73124904	     21.61629220	     46.40519661	      8.82041677	     25.00911506	      7.94789860	     37.48060738	     28.28669038	     30.25557746	     13.28920493	     14.47595238	     15.91701849	     42.06671982	     20.39618911	     37.67617913	     36.01742408	      7.59214808	     27.93891130	     20.68820828	     14.51199443	     12.16216607	     19.66706462	     12.58137112	     11.16569835	      7.78192368	     18.12657595	     27.55897668	     20.56446591	     63.94844568	     55.74723376	     18.09749761	      9.16713757	     20.03892834	     52.59616868	     32.48756494	     37.22451946	     39.87484494	     67.71412964	     31.64851458	    152.72684162	     92.44649731	     14.93333873	     15.26897051	     41.82832905	     21.62516294	     46.40588080	      8.86052835	     25.04805539	      7.96040372	    124.98948381	    124.98948381	     44.96996253	     44.96996253	     60.98238211	     60.98238211	      2.76307435	     50.99597937	     -9.56042239	      5.21997485	     -0.02578839	      1.48581788	     -2.76307435	    -50.99597937	      9.56042239	     -1.74637766	      0.02558040	     -0.48301696	     -3.31599387	     20.97615968	     -3.40468921	      0.94473225	     -0.02138609	     -1.00501789	      3.31599387	    -20.97615968	      3.40468921	      0.28075727	      0.00368718	     -0.29758878	   1797.80029778	   2291.10102496	    284.03208290	   -176.65268445	     47.75119335	    744.91390646	  -1797.80029778	  -2291.10102496	   -284.03208290	     79.15822285	    -57.96578865	    -45.42165248	   -197.13218879	    444.41611976	     -3.95653019	      9.90785762	      3.73329565	    -76.74556850	    197.13218879	   -444.41611976	      3.95653019	     -6.23592074	     -2.75505812	      3.67335219	      0.00000000	      0.00000000	      0.00000000	      0.00000000	      0.00000000	      0.00000000	      0.00000000	      0.00000000	      0.00000000	      0.00000000	      0.00000000	      0.00000000	      0.00000000	      0.00000000	      0.00000000	      0.00000000	      0.00000000	      0.00000000	      0.00000000	      0.00000000	      0.00000000	      0.00000000	      0.00000000	      0.00000000	     -4.17979749	    -15.47549925	      5.60234803	     -0.40388326	      0.05908842	     -0.13793183	      4.17979749	     15.47549925	     -5.60234803	      2.62159254	     -0.05017083	      1.81715271	      0.00000000	      0.00000000	      0.00000000	      0.00000000	      0.00000000	      0.00000000	      0.00000000	      0.00000000	      0.00000000	      0.00000000	      0.00000000	      0.00000000	      0.00000000	      0.00000000	     43.53302942	    150.72196223	      0.00000000	    119.94660801	      0.00000000	      0.00000000	      0.00000001	      0.00000000	    103.36618800	    -37.62220000	      0.00000000
      0.00032429	     37.47980087	     28.28533474	     30.25437079	     13.28751847	     14.47502663	     15.91665918	     28.06149911	     20.35768465	     32.08780881	     36.97770397	      7.98369004	     27.93781540	     20.68422198	     14.51130681	     12.16175667	     19.66672979	     12.57465628	     11.16464888	      7.98147758	     18.12585552	     27.55789900	     20.56379077	     63.94659043	     55.74617167	     18.09626824	      9.16697185	     20.03878380	     57.43114165	     43.77161936	     45.52739287	     58.01898709	     52.93835069	     27.07275285	    153.99606221	     92.66508201	     14.95673615	     15.30172771	     41.52184068	     21.59833425	     46.40481021	      8.73553327	     24.92322888	      7.91996052	     37.47980087	     28.28533474	     30.25437079	     13.28751847	     14.47502663	     15.91665918	     42.06636190	     20.39570250	     37.67577916	     36.01505273	      7.59099279	     27.93781540	     20.68422198	     14.51130681	     12.16175667	     19.66672979	     12.58128741	     11.16464888	      7.78127109	     18.12585552	     27.55789900	     20.56379077	     63.94659043	     55.74617167	     18.09626824	      9.16697185	     20.03878380	     52.59556262	     32.48667817	     37.22364139	     39.87395174	     67.71377793	     31.64834726	    152.72574680	     92.44622172	     14.93339450	     15.26900815	     41.82775794	     21.62495839	     46.40567688	      8.86031088	     25.04766704	      7.96024785	    124.97480397	    124.97480397	     44.96860811	     44.96860811	     60.98091569	     60.98091569	      2.76307435	     50.99597937	     -9.56042239	      5.21997485	     -0.02578839	      1.48581788	     -2.76307435	    -50.99597937	      9.56042239	     -1.74637766	      0.02558040	     -0.48301696	     -3.31599387	     20.97615968	     -3.40468921	      0.94473225	     -0.02138609	     -1.00501789	      3.31599387	    -20.97615968	      3.40468921	      0.28075727	      0.00368718	     -0.29758878	   1211.35763260	   1492.56731799	    222.04106439	   -130.33608334	     32.35390260	    502.35151061	  -1211.35763260	  -1492.56731799	   -222.04106439	     52.66056894	    -39.38933357	    -31.29593417	   -197.13580177	    322.09734899	    -12.72663758	     11.33581995	      3.82517405	    -78.75764866	    197.13580177	   -322.09734899	     12.72663758	     -4.90487373	     -2.80200503	      5.03749232	      0.00000000	      0.00000000	      0.00000000	      0.00000000	      0.00000000	      0.00000000	      0.00000000	      0.00000000	      0.00000000	      0.00000000	      0.00000000	      0.00000000	      0.00000000	      0.00000000	      0.00000000	      0.00000000	      0.00000000	      0.00000000	      0.00000000	      0.00000000	      0.00000000	      0.00000000	      0.00000000	      0.00000000	     -2.13866620	     -9.40006434	      4.12926346	     -0.27609711	      0.03327036	     -0.06716478	      2.13866620	      9.40006434	     -4.12926346	      1.90098964	     -0.02217097	      0.93401131	      0.00000000	      0.00000000	      0.00000000	      0.00000000	      0.00000000	      0.00000000	      0.00000000	      0.00000000	      0.00000000	      0.00000000	      0.00000000	      0.00000000	      0.00000000	      0.00000000	     63.34259240	    204.96840053	      0.00000000	    175.15410894	      0.00000000	      0.00000000	      0.00000001	      0.00000000	    103.36618800	    -37.62220000	      0.00000000
      0.00053883	     37.47791022	     28.28217476	     30.25155318	     13.28365442	     14.47287677	     15.91581707	     28.78825174	     20.90753728	     32.88417830	     40.45374452	      8.50677401	     27.93525611	     20.67522137	     14.50970382	     12.16079947	     19.66594412	     12.81287338	     11.16222700	      8.42506084	     18.12417330	     27.55538227	     20.56221196	     63.94225434	     55.74368085	     18.09341497	      9.16658331	     20.03844392	     58.75025024	     46.11621109	     47.99551229	     60.57378323	     54.56621516	     27.91503772	    155.38210507	     92.90985889	     14.98720508	     15.34211776	     41.19611780	     21.56400892	     46.39852544	      8.60112826	     24.78060262	      7.87363884	     37.47791022	     28.28217476	     30.25155318	     13.28365442	     14.47287677	     15.91581707	     42.06552053	     20.39456232	     37.67483938	     36.00954655	      7.58836056	     27.93525611	     20.67522137	     14.50970382	     12.16079947	     19.66594412	     12.58109058	     11.16222700	      7.77976170	     18.12417330	     27.55538227	     20.56221196	     63.94225434	     55.74368085	     18.09341497	      9.16658331	     20.03844392	     52.59413885	     32.48460205	     37.22158398	     39.87185837	     67.71295056	     31.64795367	    152.72317245	     92.44557326	     14.93352505	     15.26909600	     41.82641686	     21.62447764	     46.40519711	      8.85980149	     25.04675547	      7.95988215	    124.94109907	    124.94109907	     44.96543882	     44.96543882	     60.97748715	     60.97748715	      2.76307435	     50.99597937	     -9.56042239	      5.21997485	     -0.02578839	      1.48581788	     -2.76307435	    -50.99597937	      9.56042239	     -1.74637766	      0.02558040	     -0.48301696	     -3.31599387	     20.97615968	     -3.40468921	      0.94473225	     -0.02138609	     -1.00501789	      3.31599387	    -20.97615968	      3.40468921	      0.28075727	      0.00368718	     -0.29758878	    900.06733690	   1034.89084377	    148.02486448	    -87.73897265	     23.90383806	    373.58212166	   -900.06733690	  -1034.89084377	   -148.02486448	     36.14047676	    -29.03635401	    -23.95359997	   -168.38338176	    231.62781792	    -19.39246533	     12.45094589	      3.34894141	    -67.97489011	    168.38338176	   -231.62781792	     19.39246533	     -3.90993618	     -2.43174208	      4.76914510	      0.00000000	      0.00000000	      0.00000000	      0.00000000	      0.00000000	      0.00000000	      0.00000000	      0.00000000	      0.00000000	      0.00000000	      0.00000000	      0.00000000	      0.00000000	      0.00000000	      0.00000000	      0.00000000	      0.00000000	      0.00000000	      0.00000000	      0.00000000	      0.00000000	      0.00000000	      0.00000000	      0.00000000	     -0.65523599	     -3.28337732	      1.64461420	     -0.10519854	      0.01090218	     -0.02010359	      0.65523599	      3.28337732	     -1.64461420	      0.75017725	     -0.00556303	      0.28773092	      0.00000000	      0.00000000	      0.00000000	      0.00000000	      0.00000000	      0.00000000	      0.00000000	      0.00000000	      0.00000000	      0.00000000	      0.00000000	      0.00000000	      0.00000000	      0.00000000	     76.23863321	    242.21492159	      0.00000000	    209.89940086	      0.00000000	      0.00000000	      0.00000001	      0.00000000	    103.36618800	    -37.62220000	      0.00000000
